<mxfile host="app.diagrams.net" agent="Mozilla/5.0 (Windows NT 10.0; Win64; x64; rv:137.0) Gecko/20100101 Firefox/137.0" version="26.2.13">
  <diagram name="Page-1" id="oBoMtTXuPNJfdkDPqrHE">
    <mxGraphModel dx="1044" dy="615" grid="1" gridSize="10" guides="1" tooltips="1" connect="1" arrows="1" fold="1" page="1" pageScale="1" pageWidth="850" pageHeight="1100" background="#F1F3F4" math="0" shadow="0">
      <root>
        <mxCell id="0" />
        <mxCell id="1" parent="0" />
        <mxCell id="Cjyan4-toyM-WMKIcCKi-81" style="edgeStyle=none;curved=1;rounded=0;orthogonalLoop=1;jettySize=auto;html=1;exitX=0.5;exitY=1;exitDx=0;exitDy=0;entryX=0.5;entryY=0;entryDx=0;entryDy=0;fontSize=12;startSize=8;endSize=8;" edge="1" parent="1" source="Cjyan4-toyM-WMKIcCKi-1" target="Cjyan4-toyM-WMKIcCKi-77">
          <mxGeometry relative="1" as="geometry" />
        </mxCell>
        <mxCell id="Cjyan4-toyM-WMKIcCKi-1" value="START" style="rounded=1;whiteSpace=wrap;html=1;" vertex="1" parent="1">
          <mxGeometry x="240" y="100" width="120" height="60" as="geometry" />
        </mxCell>
        <mxCell id="Cjyan4-toyM-WMKIcCKi-82" style="edgeStyle=none;curved=1;rounded=0;orthogonalLoop=1;jettySize=auto;html=1;exitX=0.5;exitY=1;exitDx=0;exitDy=0;entryX=0.5;entryY=0;entryDx=0;entryDy=0;fontSize=12;startSize=8;endSize=8;" edge="1" parent="1" source="Cjyan4-toyM-WMKIcCKi-77" target="Cjyan4-toyM-WMKIcCKi-78">
          <mxGeometry relative="1" as="geometry" />
        </mxCell>
        <mxCell id="Cjyan4-toyM-WMKIcCKi-77" value="def greet(name): print(&quot;Hi &quot; + name)" style="rounded=0;whiteSpace=wrap;html=1;" vertex="1" parent="1">
          <mxGeometry x="240" y="200" width="120" height="60" as="geometry" />
        </mxCell>
        <mxCell id="Cjyan4-toyM-WMKIcCKi-83" style="edgeStyle=none;curved=1;rounded=0;orthogonalLoop=1;jettySize=auto;html=1;exitX=0.5;exitY=1;exitDx=0;exitDy=0;entryX=0.5;entryY=0;entryDx=0;entryDy=0;fontSize=12;startSize=8;endSize=8;" edge="1" parent="1" source="Cjyan4-toyM-WMKIcCKi-78" target="Cjyan4-toyM-WMKIcCKi-80">
          <mxGeometry relative="1" as="geometry" />
        </mxCell>
        <mxCell id="Cjyan4-toyM-WMKIcCKi-78" value="greet(&quot;Alex&quot;)" style="rounded=0;whiteSpace=wrap;html=1;" vertex="1" parent="1">
          <mxGeometry x="240" y="300" width="120" height="60" as="geometry" />
        </mxCell>
        <mxCell id="Cjyan4-toyM-WMKIcCKi-80" value="END" style="rounded=1;whiteSpace=wrap;html=1;" vertex="1" parent="1">
          <mxGeometry x="240" y="400" width="120" height="60" as="geometry" />
        </mxCell>
      </root>
    </mxGraphModel>
  </diagram>
</mxfile>
